<svg width="230" height="28" xmlns="http://www.w3.org/2000/svg"><g fill="none" fill-rule="evenodd"><g fill="#FFF"><path d="M209.454.464v27.072h20.613v-5.298h-14.696v-5.685h14.161v-5.3h-14.16v-5.49h14.502v-5.3zM89.97 27.923c-4.1 0-8.238-1.431-11.487-4.332l3.52-4.215c2.436 2.01 4.988 3.287 8.082 3.287 2.437 0 3.906-.967 3.906-2.552v-.078c0-1.508-.927-2.281-5.453-3.442-5.453-1.392-8.972-2.9-8.972-8.276v-.077c0-4.912 3.945-8.16 9.475-8.16 3.946 0 7.31 1.237 10.055 3.44l-3.094 4.488c-2.397-1.664-4.757-2.67-7.038-2.67-2.282 0-3.48 1.045-3.48 2.36v.078c0 1.779 1.16 2.359 5.84 3.558 5.491 1.43 8.584 3.403 8.584 8.12v.078c0 5.376-4.099 8.393-9.939 8.393M115.78 28c-7.965 0-13.883-6.15-13.883-13.922V14c0-7.696 5.802-14 14.116-14 5.106 0 8.16 1.702 10.674 4.177l-3.79 4.37c-2.088-1.895-4.215-3.055-6.922-3.055-4.563 0-7.851 3.79-7.851 8.43V14c0 4.64 3.21 8.508 7.85 8.508 3.095 0 4.99-1.237 7.117-3.171l3.79 3.829c-2.785 2.978-5.878 4.834-11.1 4.834M195.854 28c-7.966 0-13.884-6.15-13.884-13.922V14c0-7.696 5.802-14 14.116-14 5.106 0 8.16 1.702 10.674 4.177l-3.79 4.37c-2.088-1.895-4.215-3.055-6.922-3.055-4.563 0-7.851 3.79-7.851 8.43V14c0 4.64 3.21 8.508 7.85 8.508 3.095 0 4.99-1.237 7.117-3.171l3.79 3.829c-2.785 2.978-5.878 4.834-11.1 4.834M129.381 27.536h5.955V.464h-5.955zM173.592.464v16.668L160.906.464h-5.49v5.298H141.16v5.531h14.254v5.254h-14.254l.034 5.671h14.22v5.318h5.878v-17.21l13.111 17.21h5.066V.464z"/></g><g fill="#FAAE39"><path d="M0 .367h3.055v24.25h15.238v2.822H0zM21.388 27.439h3.055V.367h-3.055zM50.24.367h3.288L41.886 27.632h-2.707L27.539.367h3.403l9.63 23.321zM76.192 3.152H59.678v9.243h14.774v2.785H59.678v9.475h16.707v2.784H56.623V.368h19.569z"/></g></g></svg>